# Tiled2Unity generated file. Do not modify by hand.
# Wavefront file for 'Level_01_mesh_0001.obj'

# Vertices (Count = 72)
v -9.92 -8.48 0
v -10.08 -8.48 0
v -10.08 -8.32 0
v -9.92 -8.32 0
v -10.08 -8.48 0
v -10.24 -8.48 0
v -10.24 -8.32 0
v -10.08 -8.32 0
v -10.24 -8.48 0
v -10.4 -8.48 0
v -10.4 -8.32 0
v -10.24 -8.32 0
v -10.4 -8.48 0
v -10.56 -8.48 0
v -10.56 -8.32 0
v -10.4 -8.32 0
v -10.56 -8.48 0
v -10.72 -8.48 0
v -10.72 -8.32 0
v -10.56 -8.32 0
v -10.72 -8.48 0
v -10.88 -8.48 0
v -10.88 -8.32 0
v -10.72 -8.32 0
v -9.92 -8.639999 0
v -10.08 -8.639999 0
v -10.08 -8.48 0
v -9.92 -8.48 0
v -10.08 -8.639999 0
v -10.24 -8.639999 0
v -10.24 -8.48 0
v -10.08 -8.48 0
v -10.24 -8.639999 0
v -10.4 -8.639999 0
v -10.4 -8.48 0
v -10.24 -8.48 0
v -10.4 -8.639999 0
v -10.56 -8.639999 0
v -10.56 -8.48 0
v -10.4 -8.48 0
v -10.56 -8.639999 0
v -10.72 -8.639999 0
v -10.72 -8.48 0
v -10.56 -8.48 0
v -10.72 -8.639999 0
v -10.88 -8.639999 0
v -10.88 -8.48 0
v -10.72 -8.48 0
v -9.92 -8.8 0
v -10.08 -8.8 0
v -10.08 -8.639999 0
v -9.92 -8.639999 0
v -10.08 -8.8 0
v -10.24 -8.8 0
v -10.24 -8.639999 0
v -10.08 -8.639999 0
v -10.24 -8.8 0
v -10.4 -8.8 0
v -10.4 -8.639999 0
v -10.24 -8.639999 0
v -10.4 -8.8 0
v -10.56 -8.8 0
v -10.56 -8.639999 0
v -10.4 -8.639999 0
v -10.56 -8.8 0
v -10.72 -8.8 0
v -10.72 -8.639999 0
v -10.56 -8.639999 0
v -10.72 -8.8 0
v -10.88 -8.8 0
v -10.88 -8.639999 0
v -10.72 -8.639999 0

# Texture cooridinates (Count = 12)
vt 0.52 0.04347826
vt 0.56 0.04347826
vt 0.56 0.08695652
vt 0.52 0.08695652
vt 0.6 0.04347826
vt 0.6 0.08695652
vt 0.4 0.04347826
vt 0.44 0.04347826
vt 0.44 0.08695652
vt 0.4 0.08695652
vt 0.48 0.04347826
vt 0.48 0.08695652

# Normal
vn 0 0 -1

# Mesh description
g Level_01_mesh_0001

# Faces
f 1/1/1 2/2/1 3/3/1 4/4/1
f 5/1/1 6/2/1 7/3/1 8/4/1
f 9/1/1 10/2/1 11/3/1 12/4/1
f 13/1/1 14/2/1 15/3/1 16/4/1
f 17/1/1 18/2/1 19/3/1 20/4/1
f 21/1/1 22/2/1 23/3/1 24/4/1
f 25/1/1 26/2/1 27/3/1 28/4/1
f 29/2/1 30/5/1 31/6/1 32/3/1
f 33/1/1 34/2/1 35/3/1 36/4/1
f 37/2/1 38/5/1 39/6/1 40/3/1
f 41/1/1 42/2/1 43/3/1 44/4/1
f 45/2/1 46/5/1 47/6/1 48/3/1
f 49/7/1 50/8/1 51/9/1 52/10/1
f 53/8/1 54/11/1 55/12/1 56/9/1
f 57/7/1 58/8/1 59/9/1 60/10/1
f 61/8/1 62/11/1 63/12/1 64/9/1
f 65/7/1 66/8/1 67/9/1 68/10/1
f 69/8/1 70/11/1 71/12/1 72/9/1

