# Tiled2Unity generated file. Do not modify by hand.
# Wavefront file for 'Level_01_mesh_0001.obj'

# Vertices (Count = 88)
v -1.76 -7.52 0
v -1.92 -7.52 0
v -1.92 -7.36 0
v -1.76 -7.36 0
v -2.24 -7.52 0
v -2.4 -7.52 0
v -2.4 -7.36 0
v -2.24 -7.36 0
v -3.36 -7.52 0
v -3.52 -7.52 0
v -3.52 -7.36 0
v -3.36 -7.36 0
v -3.52 -7.52 0
v -3.68 -7.52 0
v -3.68 -7.36 0
v -3.52 -7.36 0
v -9.92 -8.48 0
v -10.08 -8.48 0
v -10.08 -8.32 0
v -9.92 -8.32 0
v -10.08 -8.48 0
v -10.24 -8.48 0
v -10.24 -8.32 0
v -10.08 -8.32 0
v -10.24 -8.48 0
v -10.4 -8.48 0
v -10.4 -8.32 0
v -10.24 -8.32 0
v -10.4 -8.48 0
v -10.56 -8.48 0
v -10.56 -8.32 0
v -10.4 -8.32 0
v -10.56 -8.48 0
v -10.72 -8.48 0
v -10.72 -8.32 0
v -10.56 -8.32 0
v -10.72 -8.48 0
v -10.88 -8.48 0
v -10.88 -8.32 0
v -10.72 -8.32 0
v -9.92 -8.639999 0
v -10.08 -8.639999 0
v -10.08 -8.48 0
v -9.92 -8.48 0
v -10.08 -8.639999 0
v -10.24 -8.639999 0
v -10.24 -8.48 0
v -10.08 -8.48 0
v -10.24 -8.639999 0
v -10.4 -8.639999 0
v -10.4 -8.48 0
v -10.24 -8.48 0
v -10.4 -8.639999 0
v -10.56 -8.639999 0
v -10.56 -8.48 0
v -10.4 -8.48 0
v -10.56 -8.639999 0
v -10.72 -8.639999 0
v -10.72 -8.48 0
v -10.56 -8.48 0
v -10.72 -8.639999 0
v -10.88 -8.639999 0
v -10.88 -8.48 0
v -10.72 -8.48 0
v -9.92 -8.8 0
v -10.08 -8.8 0
v -10.08 -8.639999 0
v -9.92 -8.639999 0
v -10.08 -8.8 0
v -10.24 -8.8 0
v -10.24 -8.639999 0
v -10.08 -8.639999 0
v -10.24 -8.8 0
v -10.4 -8.8 0
v -10.4 -8.639999 0
v -10.24 -8.639999 0
v -10.4 -8.8 0
v -10.56 -8.8 0
v -10.56 -8.639999 0
v -10.4 -8.639999 0
v -10.56 -8.8 0
v -10.72 -8.8 0
v -10.72 -8.639999 0
v -10.56 -8.639999 0
v -10.72 -8.8 0
v -10.88 -8.8 0
v -10.88 -8.639999 0
v -10.72 -8.639999 0

# Texture cooridinates (Count = 16)
vt 0.04 0.6521739
vt 0.08 0.6521739
vt 0.08 0.6956522
vt 0.04 0.6956522
vt 0.52 0.04347826
vt 0.56 0.04347826
vt 0.56 0.08695652
vt 0.52 0.08695652
vt 0.6 0.04347826
vt 0.6 0.08695652
vt 0.4 0.04347826
vt 0.44 0.04347826
vt 0.44 0.08695652
vt 0.4 0.08695652
vt 0.48 0.04347826
vt 0.48 0.08695652

# Normal
vn 0 0 -1

# Mesh description
g Level_01_mesh_0001

# Faces
f 1/1/1 2/2/1 3/3/1 4/4/1
f 5/1/1 6/2/1 7/3/1 8/4/1
f 9/1/1 10/2/1 11/3/1 12/4/1
f 13/1/1 14/2/1 15/3/1 16/4/1
f 17/5/1 18/6/1 19/7/1 20/8/1
f 21/5/1 22/6/1 23/7/1 24/8/1
f 25/5/1 26/6/1 27/7/1 28/8/1
f 29/5/1 30/6/1 31/7/1 32/8/1
f 33/5/1 34/6/1 35/7/1 36/8/1
f 37/5/1 38/6/1 39/7/1 40/8/1
f 41/5/1 42/6/1 43/7/1 44/8/1
f 45/6/1 46/9/1 47/10/1 48/7/1
f 49/5/1 50/6/1 51/7/1 52/8/1
f 53/6/1 54/9/1 55/10/1 56/7/1
f 57/5/1 58/6/1 59/7/1 60/8/1
f 61/6/1 62/9/1 63/10/1 64/7/1
f 65/11/1 66/12/1 67/13/1 68/14/1
f 69/12/1 70/15/1 71/16/1 72/13/1
f 73/11/1 74/12/1 75/13/1 76/14/1
f 77/12/1 78/15/1 79/16/1 80/13/1
f 81/11/1 82/12/1 83/13/1 84/14/1
f 85/12/1 86/15/1 87/16/1 88/13/1

