# Tiled2Unity generated file. Do not modify by hand.
# Wavefront file for 'Level_01_mesh_0005.obj'

# Vertices (Count = 348)
v -3.68 -2.4 0
v -3.84 -2.4 0
v -3.84 -2.24 0
v -3.68 -2.24 0
v -3.68 -2.56 0
v -3.84 -2.56 0
v -3.84 -2.4 0
v -3.68 -2.4 0
v -3.68 -2.72 0
v -3.84 -2.72 0
v -3.84 -2.56 0
v -3.68 -2.56 0
v -3.68 -2.88 0
v -3.84 -2.88 0
v -3.84 -2.72 0
v -3.68 -2.72 0
v -3.68 -3.04 0
v -3.84 -3.04 0
v -3.84 -2.88 0
v -3.68 -2.88 0
v -3.68 -3.2 0
v -3.84 -3.2 0
v -3.84 -3.04 0
v -3.68 -3.04 0
v -3.68 -3.36 0
v -3.84 -3.36 0
v -3.84 -3.2 0
v -3.68 -3.2 0
v -3.68 -3.52 0
v -3.84 -3.52 0
v -3.84 -3.36 0
v -3.68 -3.36 0
v -3.68 -3.68 0
v -3.84 -3.68 0
v -3.84 -3.52 0
v -3.68 -3.52 0
v -3.68 -3.84 0
v -3.84 -3.84 0
v -3.84 -3.68 0
v -3.68 -3.68 0
v -3.68 -4 0
v -3.84 -4 0
v -3.84 -3.84 0
v -3.68 -3.84 0
v -3.68 -4.16 0
v -3.84 -4.16 0
v -3.84 -4 0
v -3.68 -4 0
v -12.96 -4.16 0
v -13.12 -4.16 0
v -13.12 -4 0
v -12.96 -4 0
v -3.68 -4.32 0
v -3.84 -4.32 0
v -3.84 -4.16 0
v -3.68 -4.16 0
v -12.96 -4.32 0
v -13.12 -4.32 0
v -13.12 -4.16 0
v -12.96 -4.16 0
v -3.68 -4.48 0
v -3.84 -4.48 0
v -3.84 -4.32 0
v -3.68 -4.32 0
v -12.96 -4.48 0
v -13.12 -4.48 0
v -13.12 -4.32 0
v -12.96 -4.32 0
v -4.96 -4.64 0
v -5.12 -4.64 0
v -5.12 -4.48 0
v -4.96 -4.48 0
v -12.96 -4.64 0
v -13.12 -4.64 0
v -13.12 -4.48 0
v -12.96 -4.48 0
v -4.96 -4.8 0
v -5.12 -4.8 0
v -5.12 -4.64 0
v -4.96 -4.64 0
v -12.96 -4.8 0
v -13.12 -4.8 0
v -13.12 -4.64 0
v -12.96 -4.64 0
v -4.96 -4.96 0
v -5.12 -4.96 0
v -5.12 -4.8 0
v -4.96 -4.8 0
v -12.96 -4.96 0
v -13.12 -4.96 0
v -13.12 -4.8 0
v -12.96 -4.8 0
v -12.96 -5.12 0
v -13.12 -5.12 0
v -13.12 -4.96 0
v -12.96 -4.96 0
v -12.96 -5.28 0
v -13.12 -5.28 0
v -13.12 -5.12 0
v -12.96 -5.12 0
v -12.96 -5.44 0
v -13.12 -5.44 0
v -13.12 -5.28 0
v -12.96 -5.28 0
v -12.96 -5.6 0
v -13.12 -5.6 0
v -13.12 -5.44 0
v -12.96 -5.44 0
v -12.96 -5.76 0
v -13.12 -5.76 0
v -13.12 -5.6 0
v -12.96 -5.6 0
v -12.96 -5.92 0
v -13.12 -5.92 0
v -13.12 -5.76 0
v -12.96 -5.76 0
v -12.96 -6.08 0
v -13.12 -6.08 0
v -13.12 -5.92 0
v -12.96 -5.92 0
v -12.8 -6.24 0
v -12.96 -6.24 0
v -12.96 -6.08 0
v -12.8 -6.08 0
v -12.8 -6.4 0
v -12.96 -6.4 0
v -12.96 -6.24 0
v -12.8 -6.24 0
v -12.8 -6.56 0
v -12.96 -6.56 0
v -12.96 -6.4 0
v -12.8 -6.4 0
v -12.8 -6.72 0
v -12.96 -6.72 0
v -12.96 -6.56 0
v -12.8 -6.56 0
v -12.8 -6.88 0
v -12.96 -6.88 0
v -12.96 -6.72 0
v -12.8 -6.72 0
v -12.8 -7.04 0
v -12.96 -7.04 0
v -12.96 -6.88 0
v -12.8 -6.88 0
v -12.8 -7.2 0
v -12.96 -7.2 0
v -12.96 -7.04 0
v -12.8 -7.04 0
v -12.8 -7.36 0
v -12.96 -7.36 0
v -12.96 -7.2 0
v -12.8 -7.2 0
v -12.8 -7.52 0
v -12.96 -7.52 0
v -12.96 -7.36 0
v -12.8 -7.36 0
v -1.28 -7.68 0
v -1.44 -7.68 0
v -1.44 -7.52 0
v -1.28 -7.52 0
v -1.44 -7.68 0
v -1.6 -7.68 0
v -1.6 -7.52 0
v -1.44 -7.52 0
v -1.6 -7.68 0
v -1.76 -7.68 0
v -1.76 -7.52 0
v -1.6 -7.52 0
v -1.76 -7.68 0
v -1.92 -7.68 0
v -1.92 -7.52 0
v -1.76 -7.52 0
v -1.92 -7.68 0
v -2.08 -7.68 0
v -2.08 -7.52 0
v -1.92 -7.52 0
v -2.08 -7.68 0
v -2.24 -7.68 0
v -2.24 -7.52 0
v -2.08 -7.52 0
v -2.24 -7.68 0
v -2.4 -7.68 0
v -2.4 -7.52 0
v -2.24 -7.52 0
v -2.4 -7.68 0
v -2.56 -7.68 0
v -2.56 -7.52 0
v -2.4 -7.52 0
v -2.56 -7.68 0
v -2.72 -7.68 0
v -2.72 -7.52 0
v -2.56 -7.52 0
v -2.72 -7.68 0
v -2.88 -7.68 0
v -2.88 -7.52 0
v -2.72 -7.52 0
v -2.88 -7.68 0
v -3.04 -7.68 0
v -3.04 -7.52 0
v -2.88 -7.52 0
v -3.04 -7.68 0
v -3.2 -7.68 0
v -3.2 -7.52 0
v -3.04 -7.52 0
v -3.2 -7.68 0
v -3.36 -7.68 0
v -3.36 -7.52 0
v -3.2 -7.52 0
v -3.36 -7.68 0
v -3.52 -7.68 0
v -3.52 -7.52 0
v -3.36 -7.52 0
v -3.52 -7.68 0
v -3.68 -7.68 0
v -3.68 -7.52 0
v -3.52 -7.52 0
v -3.68 -7.68 0
v -3.84 -7.68 0
v -3.84 -7.52 0
v -3.68 -7.52 0
v -3.84 -7.68 0
v -4 -7.68 0
v -4 -7.52 0
v -3.84 -7.52 0
v -12.8 -7.68 0
v -12.96 -7.68 0
v -12.96 -7.52 0
v -12.8 -7.52 0
v -12.8 -7.84 0
v -12.96 -7.84 0
v -12.96 -7.68 0
v -12.8 -7.68 0
v -12.8 -8 0
v -12.96 -8 0
v -12.96 -7.84 0
v -12.8 -7.84 0
v -12.8 -8.16 0
v -12.96 -8.16 0
v -12.96 -8 0
v -12.8 -8 0
v -12.8 -8.32 0
v -12.96 -8.32 0
v -12.96 -8.16 0
v -12.8 -8.16 0
v -12.8 -8.48 0
v -12.96 -8.48 0
v -12.96 -8.32 0
v -12.8 -8.32 0
v -12.8 -8.639999 0
v -12.96 -8.639999 0
v -12.96 -8.48 0
v -12.8 -8.48 0
v -12.64 -8.8 0
v -12.8 -8.8 0
v -12.8 -8.639999 0
v -12.64 -8.639999 0
v -12.64 -8.96 0
v -12.8 -8.96 0
v -12.8 -8.8 0
v -12.64 -8.8 0
v -12.64 -9.12 0
v -12.8 -9.12 0
v -12.8 -8.96 0
v -12.64 -8.96 0
v -12.64 -9.28 0
v -12.8 -9.28 0
v -12.8 -9.12 0
v -12.64 -9.12 0
v -12.64 -9.44 0
v -12.8 -9.44 0
v -12.8 -9.28 0
v -12.64 -9.28 0
v -12.64 -9.599999 0
v -12.8 -9.599999 0
v -12.8 -9.44 0
v -12.64 -9.44 0
v -12.64 -9.76 0
v -12.8 -9.76 0
v -12.8 -9.599999 0
v -12.64 -9.599999 0
v -12.64 -9.92 0
v -12.8 -9.92 0
v -12.8 -9.76 0
v -12.64 -9.76 0
v -12.64 -10.08 0
v -12.8 -10.08 0
v -12.8 -9.92 0
v -12.64 -9.92 0
v -12.64 -10.24 0
v -12.8 -10.24 0
v -12.8 -10.08 0
v -12.64 -10.08 0
v -12.64 -10.4 0
v -12.8 -10.4 0
v -12.8 -10.24 0
v -12.64 -10.24 0
v -12.64 -10.56 0
v -12.8 -10.56 0
v -12.8 -10.4 0
v -12.64 -10.4 0
v -12.64 -10.72 0
v -12.8 -10.72 0
v -12.8 -10.56 0
v -12.64 -10.56 0
v -12.64 -10.88 0
v -12.8 -10.88 0
v -12.8 -10.72 0
v -12.64 -10.72 0
v -12.64 -11.04 0
v -12.8 -11.04 0
v -12.8 -10.88 0
v -12.64 -10.88 0
v -12.64 -11.2 0
v -12.8 -11.2 0
v -12.8 -11.04 0
v -12.64 -11.04 0
v -12.48 -11.36 0
v -12.64 -11.36 0
v -12.64 -11.2 0
v -12.48 -11.2 0
v -12.48 -11.52 0
v -12.64 -11.52 0
v -12.64 -11.36 0
v -12.48 -11.36 0
v -12.48 -11.68 0
v -12.64 -11.68 0
v -12.64 -11.52 0
v -12.48 -11.52 0
v -12.48 -11.84 0
v -12.64 -11.84 0
v -12.64 -11.68 0
v -12.48 -11.68 0
v -12.48 -12 0
v -12.64 -12 0
v -12.64 -11.84 0
v -12.48 -11.84 0
v -12.48 -12.16 0
v -12.64 -12.16 0
v -12.64 -12 0
v -12.48 -12 0
v -12.48 -12.32 0
v -12.64 -12.32 0
v -12.64 -12.16 0
v -12.48 -12.16 0
v -12.48 -12.48 0
v -12.64 -12.48 0
v -12.64 -12.32 0
v -12.48 -12.32 0

# Texture cooridinates (Count = 16)
vt 0.28 0.5217391
vt 0.32 0.5217391
vt 0.32 0.5652174
vt 0.28 0.5652174
vt 0.6 0.3478261
vt 0.64 0.3478261
vt 0.64 0.3913043
vt 0.6 0.3913043
vt 0.68 0.3478261
vt 0.72 0.3478261
vt 0.72 0.3913043
vt 0.68 0.3913043
vt 0.76 0.3478261
vt 0.8 0.3478261
vt 0.8 0.3913043
vt 0.76 0.3913043

# Normal
vn 0 0 -1

# Mesh description
g Level_01_mesh_0005

# Faces
f 1/1/1 2/2/1 3/3/1 4/4/1
f 5/1/1 6/2/1 7/3/1 8/4/1
f 9/1/1 10/2/1 11/3/1 12/4/1
f 13/1/1 14/2/1 15/3/1 16/4/1
f 17/1/1 18/2/1 19/3/1 20/4/1
f 21/1/1 22/2/1 23/3/1 24/4/1
f 25/1/1 26/2/1 27/3/1 28/4/1
f 29/1/1 30/2/1 31/3/1 32/4/1
f 33/1/1 34/2/1 35/3/1 36/4/1
f 37/1/1 38/2/1 39/3/1 40/4/1
f 41/1/1 42/2/1 43/3/1 44/4/1
f 45/1/1 46/2/1 47/3/1 48/4/1
f 49/1/1 50/2/1 51/3/1 52/4/1
f 53/1/1 54/2/1 55/3/1 56/4/1
f 57/1/1 58/2/1 59/3/1 60/4/1
f 61/1/1 62/2/1 63/3/1 64/4/1
f 65/1/1 66/2/1 67/3/1 68/4/1
f 69/1/1 70/2/1 71/3/1 72/4/1
f 73/1/1 74/2/1 75/3/1 76/4/1
f 77/1/1 78/2/1 79/3/1 80/4/1
f 81/1/1 82/2/1 83/3/1 84/4/1
f 85/1/1 86/2/1 87/3/1 88/4/1
f 89/1/1 90/2/1 91/3/1 92/4/1
f 93/1/1 94/2/1 95/3/1 96/4/1
f 97/1/1 98/2/1 99/3/1 100/4/1
f 101/1/1 102/2/1 103/3/1 104/4/1
f 105/1/1 106/2/1 107/3/1 108/4/1
f 109/1/1 110/2/1 111/3/1 112/4/1
f 113/1/1 114/2/1 115/3/1 116/4/1
f 117/1/1 118/2/1 119/3/1 120/4/1
f 121/1/1 122/2/1 123/3/1 124/4/1
f 125/1/1 126/2/1 127/3/1 128/4/1
f 129/1/1 130/2/1 131/3/1 132/4/1
f 133/1/1 134/2/1 135/3/1 136/4/1
f 137/1/1 138/2/1 139/3/1 140/4/1
f 141/1/1 142/2/1 143/3/1 144/4/1
f 145/1/1 146/2/1 147/3/1 148/4/1
f 149/1/1 150/2/1 151/3/1 152/4/1
f 153/1/1 154/2/1 155/3/1 156/4/1
f 157/5/1 158/6/1 159/7/1 160/8/1
f 161/9/1 162/10/1 163/11/1 164/12/1
f 165/9/1 166/10/1 167/11/1 168/12/1
f 169/9/1 170/10/1 171/11/1 172/12/1
f 173/9/1 174/10/1 175/11/1 176/12/1
f 177/9/1 178/10/1 179/11/1 180/12/1
f 181/9/1 182/10/1 183/11/1 184/12/1
f 185/9/1 186/10/1 187/11/1 188/12/1
f 189/9/1 190/10/1 191/11/1 192/12/1
f 193/9/1 194/10/1 195/11/1 196/12/1
f 197/9/1 198/10/1 199/11/1 200/12/1
f 201/9/1 202/10/1 203/11/1 204/12/1
f 205/9/1 206/10/1 207/11/1 208/12/1
f 209/9/1 210/10/1 211/11/1 212/12/1
f 213/9/1 214/10/1 215/11/1 216/12/1
f 217/9/1 218/10/1 219/11/1 220/12/1
f 221/13/1 222/14/1 223/15/1 224/16/1
f 225/1/1 226/2/1 227/3/1 228/4/1
f 229/1/1 230/2/1 231/3/1 232/4/1
f 233/1/1 234/2/1 235/3/1 236/4/1
f 237/1/1 238/2/1 239/3/1 240/4/1
f 241/1/1 242/2/1 243/3/1 244/4/1
f 245/1/1 246/2/1 247/3/1 248/4/1
f 249/1/1 250/2/1 251/3/1 252/4/1
f 253/1/1 254/2/1 255/3/1 256/4/1
f 257/1/1 258/2/1 259/3/1 260/4/1
f 261/1/1 262/2/1 263/3/1 264/4/1
f 265/1/1 266/2/1 267/3/1 268/4/1
f 269/1/1 270/2/1 271/3/1 272/4/1
f 273/1/1 274/2/1 275/3/1 276/4/1
f 277/1/1 278/2/1 279/3/1 280/4/1
f 281/1/1 282/2/1 283/3/1 284/4/1
f 285/1/1 286/2/1 287/3/1 288/4/1
f 289/1/1 290/2/1 291/3/1 292/4/1
f 293/1/1 294/2/1 295/3/1 296/4/1
f 297/1/1 298/2/1 299/3/1 300/4/1
f 301/1/1 302/2/1 303/3/1 304/4/1
f 305/1/1 306/2/1 307/3/1 308/4/1
f 309/1/1 310/2/1 311/3/1 312/4/1
f 313/1/1 314/2/1 315/3/1 316/4/1
f 317/1/1 318/2/1 319/3/1 320/4/1
f 321/1/1 322/2/1 323/3/1 324/4/1
f 325/1/1 326/2/1 327/3/1 328/4/1
f 329/1/1 330/2/1 331/3/1 332/4/1
f 333/1/1 334/2/1 335/3/1 336/4/1
f 337/1/1 338/2/1 339/3/1 340/4/1
f 341/1/1 342/2/1 343/3/1 344/4/1
f 345/1/1 346/2/1 347/3/1 348/4/1

